<?xml version="1.0" encoding="utf-8"?>
<!-- Generator: Adobe Illustrator 24.1.3, SVG Export Plug-In . SVG Version: 6.00 Build 0)  -->
<svg version="1.1" id="Layer_1" xmlns="http://www.w3.org/2000/svg" xmlns:xlink="http://www.w3.org/1999/xlink" x="0px" y="0px"
	 viewBox="0 0 2221.36 1526.4" style="enable-background:new 0 0 2221.36 1526.4;" xml:space="preserve">
<style type="text/css">
	.st0{fill:#DA1F26;}
	.st1{opacity:0.82;fill:#DA1F26;}
	.st2{font-family:'Gilroy-Regular';}
	.st3{font-size:369.1542px;}
</style>
<path class="st0" d="M-1991.04,153.17c-14.5,0-29,0-43.5,0c-59.24,0.01-118.49-0.51-177.72,0.4c-15.06,0.23-23.15-4.86-30.13-17.85
	c-43.94-81.86-70.9-169.36-87.9-260.22c-3.88-20.72-5.58-41.85-9.61-62.53c-2.7-13.85,2.43-19.06,15.48-20.15
	c12.83-1.07,25.83-2.08,38.31-5.03c14.51-3.43,20.76,2.01,25.58,15.37c23.62,65.47,56.7,126.11,97.94,182.03
	c45.54,61.74,98.43,116.21,163.83,157.48c2.9,1.83,5.52,4.13,8.26,6.21C-1990.67,150.31-1990.86,151.74-1991.04,153.17z"/>
<path class="st1" d="M-2342.19,153.45c-30.97-1.66-60.04,3.49-86.62-12.5c-24.36-14.66-38.88-35.75-42.76-63.26
	c-10.91-77.18-21.03-154.47-31.14-231.76c-3.07-23.47,2.36-30.71,26.17-34.3c24.9-3.76,50.03-6.03,74.99-9.42
	c9.81-1.33,13.4,2.14,14.48,11.94c12.5,113.96,41.65,223.23,93.75,325.77c6.23,12.26,1.08,13.73-9.22,13.58
	C-2316.61,153.29-2330.69,153.45-2342.19,153.45z"/>
<path class="st1" d="M-2150.08-227.7c10.79-2.77,13.77,4.66,17.59,10.27c35.99,52.97,80.15,97.61,134.21,132.24
	c18.75,12.02,37.88,23.42,58.39,32.13c7.98,3.39,10.15,7.75,8.98,16.11c-6.28,44.66-12.59,89.33-17.77,134.13
	c-1.98,17.15-8.06,15.41-19.54,7.98c-104.06-67.41-175.38-162.15-228-272.51c-6.54-13.72-12.06-27.92-18.27-41.81
	c-3.24-7.25-1.31-10.81,6.67-11.7C-2188.04-223.06-2168.29-225.53-2150.08-227.7z"/>
<path class="st0" d="M-2085.34-234.97c51.65-6.19,99.82-12.31,148.07-17.59c24.33-2.67,33.36,6.38,30.38,30.12
	c-4.67,37.18-10.52,74.21-15.22,111.39c-1.09,8.64-3.21,11.89-11.67,7.53C-1993.88-134.55-2044.47-176.5-2085.34-234.97z"/>
<g>
	<text transform="matrix(1 0 0 1 -1738.7443 -4)"><tspan x="0" y="0" class="st2" style="font-size:318.7784px;">Duka</tspan><tspan x="0" y="254.93" class="st2" style="font-size:318.7784px;">Poa </tspan></text>
</g>
<g>
	<path d="M3866.8,617.42c37.21,0,68.29,13.05,93.23,39.15c24.94,26.1,37.41,58.28,37.41,96.52c0,38.25-12.47,70.42-37.41,96.52
		c-24.94,26.11-56.01,39.15-93.23,39.15h-107.76V617.42H3866.8z M3866.8,837.6c23.51,0,42.64-7.81,57.37-23.45
		c14.73-15.63,22.09-35.98,22.09-61.05c0-25.06-7.37-45.41-22.09-61.05c-14.73-15.63-33.86-23.45-57.37-23.45h-54.27V837.6H3866.8z"
		/>
	<path d="M4162.95,694.95h50.01v193.82h-50.01v-21.71c-12.15,18.09-31.4,27.13-57.76,27.13c-21.19,0-38.7-7.1-52.53-21.32
		c-13.83-14.21-20.74-33.85-20.74-58.92V694.95h50.01v112.8c0,12.93,3.49,22.81,10.47,29.65c6.98,6.85,16.28,10.27,27.91,10.27
		c12.92,0,23.26-4,31.01-12.02c7.75-8.01,11.63-20.02,11.63-36.05V694.95z"/>
	<path d="M4437.4,888.77h-58.15l-70.55-88.06v88.06h-50.01V617.42h50.01v163.14l66.67-85.61h59.7l-77.91,95.75L4437.4,888.77z"/>
	<path d="M4595.55,694.95h50v193.82h-50V865.9c-14.99,18.87-36.05,28.3-63.19,28.3c-25.84,0-48.01-9.88-66.48-29.65
		c-18.48-19.77-27.72-44-27.72-72.68s9.24-52.91,27.72-72.68c18.47-19.77,40.64-29.65,66.48-29.65c27.13,0,48.19,9.44,63.19,28.3
		V694.95z M4503.29,831.21c10.08,10.21,22.87,15.31,38.38,15.31s28.36-5.1,38.57-15.31c10.21-10.21,15.31-23.32,15.31-39.35
		c0-16.02-5.11-29.13-15.31-39.35c-10.21-10.21-23.06-15.31-38.57-15.31s-28.3,5.11-38.38,15.31
		c-10.08,10.21-15.12,23.33-15.12,39.35C4488.18,807.89,4493.22,821,4503.29,831.21z"/>
	<path d="M4795.96,617.42c24.29,0,44.58,8.14,60.86,24.42c16.28,16.28,24.42,36.57,24.42,60.86c0,24.29-8.14,44.58-24.42,60.86
		c-16.28,16.28-36.57,24.42-60.86,24.42h-69.78v100.79h-27.13V617.42H4795.96z M4795.96,762.4c16.79,0,30.68-5.62,41.67-16.86
		c10.98-11.24,16.47-25.52,16.47-42.83c0-17.31-5.49-31.59-16.47-42.83c-10.99-11.24-24.88-16.86-41.67-16.86h-69.78V762.4H4795.96z
		"/>
	<path d="M5070.99,864.15c-19.77,19.52-43.87,29.27-72.29,29.27c-28.43,0-52.53-9.75-72.29-29.27
		c-19.77-19.51-29.65-43.61-29.65-72.29s9.88-52.78,29.65-72.29c19.77-19.51,43.86-29.27,72.29-29.27
		c28.42,0,52.53,9.76,72.29,29.27c19.77,19.52,29.65,43.61,29.65,72.29S5090.76,844.65,5070.99,864.15z M4944.43,846.32
		c14.73,14.86,32.82,22.29,54.27,22.29c21.45,0,39.54-7.43,54.27-22.29c14.73-14.86,22.1-33.01,22.1-54.46
		c0-21.45-7.37-39.6-22.1-54.46c-14.73-14.86-32.82-22.29-54.27-22.29c-21.45,0-39.54,7.43-54.27,22.29
		c-14.73,14.86-22.1,33.02-22.1,54.46C4922.33,813.31,4929.7,831.47,4944.43,846.32z"/>
	<path d="M5309.97,694.95h25.58v193.82h-25.58v-37.99c-17.83,28.43-43.94,42.64-78.3,42.64c-27.66,0-51.23-9.82-70.74-29.46
		c-19.52-19.64-29.27-43.67-29.27-72.1c0-28.42,9.75-52.46,29.27-72.1c19.51-19.64,43.09-29.46,70.74-29.46
		c34.37,0,60.47,14.22,78.3,42.64V694.95z M5179.33,846.32c14.73,14.86,32.82,22.29,54.27,22.29c21.45,0,39.54-7.43,54.27-22.29
		c14.73-14.86,22.1-33.01,22.1-54.46c0-21.45-7.37-39.6-22.1-54.46c-14.73-14.86-32.82-22.29-54.27-22.29
		c-21.45,0-39.54,7.43-54.27,22.29c-14.73,14.86-22.1,33.02-22.1,54.46C5157.24,813.31,5164.6,831.47,5179.33,846.32z"/>
</g>
<g>
	<g>
		<g>
			<path class="st0" d="M4564.75,256.43c114.03-43.61,208.44-78.67,301.63-116.7c11.56-4.72,23.07-25,23.64-38.53
				c2.55-59.99,1.11-120.15,1.11-194.34c-49.25,17.49-87.87,37.91-128.47,43.29c-27.41,3.63-57.64-13.95-86.6-22.04
				c15.06-25.6,24.02-62.73,46.37-74.55c57.21-30.25,119.88-50.66,181.31-72.36c68.88-24.34,96.23-5.64,96.93,65.31
				c0.99,99.32-1.43,198.69,0.93,297.97c1.1,46.09-16.84,69.6-60.1,85.2c-124.81,45.02-247.85,94.91-372.21,141.22
				c-83.95,31.26-112.67,11.95-113.59-76.34c-1.31-125.96-0.21-251.95-0.54-377.93c-0.06-23.65-1.98-47.29-3.62-83.82
				c-52.29,19.64-96.34,36.16-140.37,52.71c-40.66,15.29-81.57,29.96-121.89,46.08c-39.01,15.6-79.83,24.72-97.85-23.79
				c-16.82-45.26,19.4-63.25,55.78-77.12c81.11-30.93,161.64-63.42,242.73-94.42c174.72-66.8,174.81-66.58,174.81,118.77
				C4564.75-17.41,4564.75,110.14,4564.75,256.43z"/>
			<path class="st0" d="M4168.54,20.66c68.78-26.3,137.55-52.6,212.61-81.3c0,88.35,0,159.28,0,251.33
				c-32.61-36.23-51.97-57.75-74.3-82.56c-29.61,23.97-59.29,47.99-99.77,80.77c16.95-46.51,29.51-80.95,42.63-116.95
				c-28.25-11.93-53.58-22.63-78.91-33.33C4170.05,32.63,4169.29,26.65,4168.54,20.66z"/>
		</g>
		<circle class="st0" cx="4666.17" cy="466.79" r="69.47"/>
		<circle class="st0" cx="4937.92" cy="371.91" r="69.47"/>
	</g>
</g>
<g>
	<path d="M-1701.87-277.71c1.86-2.83,5.3-4.02,11.52-3.62c15.2,0.98,30.5,0.24,45.76,0.24c37.7-0.01,37.25,0,36.67-37.47
		c-0.16-10.34-3.44-12.61-13.09-12.49c-36.38,0.47-72.78,0.7-109.16-0.06c-67.21-1.4-132.22,40.87-142.28,124.18
		c-14.33,118.58-30.72,236.92-46.37,355.34c-3.43,25.96-17.42,38.02-43.66,38.06c-65.15,0.1-130.29,0.03-195.44,0.04
		c-52.82,0.01-105.64,0.01-158.46,0.01c-14.67,0-29.37-0.47-44.01,0.15c-15.24,0.64-25.05,10.62-24.29,24.34
		c0.8,14.58,9.12,22.27,23.65,22.82c8.79,0.33,17.64,0.59,26.4-0.04c8-0.58,10.7,2.48,12.73,10.24
		c9.1,34.79,29.64,51.73,61.12,51.85c33.04,0.12,53.56-16.05,62.77-51.93c2.44-9.49,6.67-10.25,14.4-10.14
		c22.88,0.33,45.81,0.91,68.65-0.18c12.12-0.58,16.77,3,19.75,15.03c7.77,31.4,30.35,47.46,62.82,47.22
		c29.09-0.21,51.65-17.74,58.66-48c2.65-11.41,6.95-14.18,18.33-14.36c40.98-0.65,72.35-26.64,81.29-66.76
		c3.29-14.79,4.28-30.1,6.28-45.17c13.8-103.9,28.06-207.75,41.14-311.74c4.54-36.1,14.71-67.44,50.48-84.23
		c12.51-5.87,16.96-6.35,18.34,1.66v-5H-1701.87z"/>
</g>
<g>
	<text transform="matrix(1 0 0 1 389.1126 1238.3611)" class="st2 st3">DukaPoa </text>
</g>
<g>
	<path class="st0" d="M1276.96,686.34c-16.79,0-33.59,0-50.38,0c-68.6,0.01-137.22-0.6-205.8,0.47
		c-17.43,0.27-26.81-5.62-34.89-20.67c-50.89-94.79-82.1-196.12-101.79-301.34c-4.49-23.99-6.46-48.46-11.13-72.41
		c-3.13-16.04,2.82-22.07,17.93-23.33c14.86-1.24,29.91-2.41,44.36-5.83c16.8-3.97,24.04,2.33,29.62,17.8
		c27.35,75.81,65.66,146.04,113.42,210.8c52.74,71.49,113.98,134.57,189.72,182.36c3.36,2.12,6.39,4.78,9.57,7.19
		C1277.39,683.03,1277.18,684.68,1276.96,686.34z"/>
	<path class="st1" d="M870.32,686.66c-35.86-1.92-69.53,4.04-100.3-14.48c-28.21-16.97-45.02-41.4-49.52-73.25
		c-12.63-89.38-24.36-178.88-36.06-268.39c-3.55-27.18,2.74-35.57,30.3-39.72c28.84-4.35,57.93-6.98,86.84-10.91
		c11.36-1.54,15.52,2.47,16.77,13.82c14.48,131.97,48.23,258.5,108.57,377.25c7.21,14.19,1.25,15.9-10.67,15.73
		C899.94,686.48,883.64,686.66,870.32,686.66z"/>
	<path class="st1" d="M1092.8,245.28c12.5-3.21,15.95,5.39,20.37,11.9c41.68,61.34,92.82,113.03,155.41,153.14
		c21.72,13.91,43.87,27.12,67.61,37.2c9.24,3.93,11.75,8.97,10.39,18.65c-7.27,51.72-14.58,103.45-20.57,155.33
		c-2.29,19.86-9.33,17.85-22.63,9.24c-120.51-78.07-203.09-187.77-264.03-315.58c-7.58-15.89-13.96-32.34-21.16-48.41
		c-3.75-8.39-1.52-12.52,7.72-13.54C1048.83,250.65,1071.71,247.8,1092.8,245.28z"/>
	<path class="st0" d="M1167.76,236.87c59.82-7.17,115.59-14.25,171.47-20.37c28.17-3.09,38.63,7.39,35.18,34.88
		c-5.41,43.06-12.18,85.94-17.62,128.99c-1.26,10.01-3.72,13.77-13.51,8.72C1273.67,353.15,1215.09,304.57,1167.76,236.87z"/>
	<g>
		<path d="M1611.83,187.37c2.15-3.28,6.13-4.65,13.34-4.19c17.6,1.14,35.32,0.28,52.99,0.28c43.66-0.01,43.14,0,42.47-43.39
			c-0.18-11.97-3.99-14.61-15.16-14.46c-42.13,0.54-84.29,0.81-126.41-0.06c-77.83-1.62-153.11,47.33-164.77,143.8
			c-16.6,137.32-35.57,274.36-53.7,411.49c-3.97,30.06-20.17,44.03-50.55,44.08c-75.44,0.11-150.88,0.04-226.32,0.05
			c-61.17,0.01-122.34,0.01-183.5,0.01c-16.99,0-34.01-0.54-50.97,0.17c-17.65,0.74-29,12.3-28.13,28.19
			c0.93,16.88,10.56,25.79,27.39,26.42c10.18,0.38,20.43,0.68,30.57-0.05c9.27-0.67,12.39,2.87,14.74,11.86
			c10.54,40.29,34.32,59.9,70.77,60.04c38.26,0.14,62.02-18.59,72.69-60.13c2.82-10.99,7.72-11.87,16.67-11.75
			c26.5,0.38,53.05,1.05,79.5-0.21c14.04-0.67,19.42,3.47,22.87,17.41c9,36.36,35.15,54.96,72.74,54.68
			c33.68-0.24,59.81-20.55,67.93-55.58c3.06-13.22,8.04-16.42,21.23-16.63c47.46-0.75,83.78-30.85,94.13-77.31
			c3.82-17.13,4.96-34.85,7.28-52.31c15.98-120.32,32.49-240.58,47.64-361c5.26-41.81,17.03-78.1,58.45-97.55
			c14.49-6.8,19.63-7.36,21.24,1.93v-5.79H1611.83z"/>
	</g>
</g>
</svg>
